<?xml version="1.0" encoding="UTF-8"?>
<svg id="Layer_1" xmlns="http://www.w3.org/2000/svg" version="1.1" viewBox="0 0 64 64">
  <!-- Generator: Adobe Illustrator 30.3.0, SVG Export Plug-In . SVG Version: 2.1.3 Build 182)  -->
  <defs>
    <style>
      .st0 {
        fill: #3c704b;
      }

      .st1 {
        fill: #faf7ee;
      }
    </style>
  </defs>
  <rect class="st0" width="64" height="64" rx="10" ry="10"/>
  <g>
    <path class="st1" d="M23.51,52.75c-8.17,0-14.81-6.64-14.81-14.81V13c0-.97.78-1.75,1.75-1.75h13.06c.97,0,1.75.78,1.75,1.75s-.78,1.75-1.75,1.75h-11.31v23.19c0,6.24,5.07,11.31,11.31,11.31.97,0,1.75.78,1.75,1.75s-.78,1.75-1.75,1.75Z"/>
    <path class="st1" d="M22.34,38.87c-2.47,0-4.94-.96-7.34-2.88-.76-.6-.88-1.7-.28-2.46.6-.76,1.71-.88,2.46-.28,3.52,2.81,6.8,2.81,10.32,0,.75-.6,1.86-.48,2.46.28.6.75.48,1.86-.28,2.46-2.4,1.92-4.87,2.88-7.34,2.88Z"/>
    <path class="st1" d="M40.67,52.75c-.97,0-1.75-.78-1.75-1.75s.78-1.75,1.75-1.75c6.24,0,11.31-5.07,11.31-11.31V14.75h-11.31c-.97,0-1.75-.78-1.75-1.75s.78-1.75,1.75-1.75h13.06c.97,0,1.75.78,1.75,1.75v24.94c0,8.17-6.64,14.81-14.81,14.81Z"/>
    <path class="st1" d="M48.06,38.88c-.38,0-.77-.12-1.09-.38-3.52-2.81-6.8-2.81-10.32,0-.75.6-1.86.48-2.46-.28s-.48-1.86.28-2.46c4.8-3.84,9.88-3.83,14.68,0,.76.6.88,1.7.28,2.46-.35.43-.85.66-1.37.66Z"/>
  </g>
</svg>