<?xml version="1.0" encoding="UTF-8"?>
<svg id="Layer_1" data-name="Layer 1" xmlns="http://www.w3.org/2000/svg" viewBox="0 0 260.72 258.5">
  <path d="M93.13,193.7c-33.34-1.26-59.08-25.88-72.3-53.81C3.68,103.46,2.06,62.93,0,24.45c-.04-.68.56-1.22,1.24-1.13C49.9,30.21,103.7,15.59,149.93.06c.62-.21,1.28.17,1.41.81,8.62,42.38,15.63,85.51,5.36,127.64-6.62,24.5-20.87,45.41-43.01,58.79-5.92,3.58-12.79,6.69-20.57,6.39ZM69.6,88.61c.82.04,1.41-.79,1.06-1.53-4.57-9.68-15.7-15.26-24.11-13.53-9.21,2.38-15.06,11.05-15.41,20.47-.03.8.8,1.35,1.54,1.03,12.21-5.37,23.78-7.12,36.93-6.44ZM75.26,160.37c13.29,5.73,27.87,3.45,37.95-5.91,6.73-6.25,12.33-13.79,13.23-23.36.08-.85-.83-1.45-1.59-1.05-23.73,12.36-43.72,15-69.16,8.65-.75-.19-1.44.43-1.35,1.19.84,7.29,12.83,16.99,20.93,20.48ZM141.06,74.98c.82-.01,1.35-.89.95-1.6-5.21-9.35-16.69-14.17-24.97-11.88-9.03,2.99-14.28,12.04-14,21.46.02.8.89,1.29,1.6.92,11.82-6.18,23.25-8.7,36.42-8.9Z"/>
  <path d="M259.62,89.07c-27.16.56-56.49.13-84.8-4-.1,15.47-1.69,31.02-5.47,46.53l-.08.31c-7.82,28.94-24.71,51.95-48.84,66.54-4.81,2.91-11.77,6.59-20.3,7.85,8.07,22.35,23.68,42.15,47.38,50.57,7.33,2.6,14.82,1.69,21.54.05,25.13-6.15,44.98-21.85,58.62-43.24,22.4-37.13,28.6-80.39,33.05-123.41.07-.65-.45-1.21-1.1-1.2ZM192.93,228.39c-23.38-13.01-43.29-16.19-68.9-10.53-.75.17-1.42-.47-1.32-1.23,1.04-7.27,13.29-16.63,21.48-19.9,13.45-5.37,27.95-2.68,37.77,6.95,6.56,6.43,11.95,14.12,12.58,23.71.06.86-.87,1.42-1.62,1.01ZM231.4,143.6c-4.13,9.88-14.99,15.96-23.48,14.6-9.31-1.96-15.54-10.36-16.32-19.76-.07-.8.74-1.38,1.49-1.09,12.44,4.82,24.08,6.04,37.18,4.76.81-.08,1.44.73,1.12,1.48Z"/>
</svg>