<?xml version="1.0" encoding="UTF-8"?>
<svg id="Layer_1" xmlns="http://www.w3.org/2000/svg" version="1.1" viewBox="0 0 1184.27 300.38">
  <!-- Generator: Adobe Illustrator 30.3.0, SVG Export Plug-In . SVG Version: 2.1.3 Build 182)  -->
  <defs>
    <style>
      .st0 {
        fill: #10100f;
      }

      .st1 {
        fill: #231f20;
      }

      .st2 {
        fill: #3c704b;
      }
    </style>
  </defs>
  <g>
    <path class="st1" d="M572.13,263.52c-13.49,0-25.22-2.42-35.18-7.25-9.97-4.83-17.67-11.67-23.1-20.54-5.44-8.86-8.15-19.22-8.15-31.11h15.1c0,13.69,4.68,24.67,14.04,32.92,9.36,8.26,21.79,12.38,37.3,12.38s26.92-3.77,35.48-11.32,12.83-18.07,12.83-31.56c0-11.67-3.32-21.84-9.97-30.5-6.64-8.65-15.7-14.69-27.18-18.12l-25.37-7.55c-14.5-4.43-25.82-11.83-33.97-22.2-8.15-10.37-12.23-22.7-12.23-37,0-11.27,2.46-20.99,7.4-29.14,4.93-8.15,11.98-14.44,21.14-18.88,9.16-4.43,19.88-6.64,32.16-6.64,18.52,0,33.17,5.19,43.94,15.55,10.77,10.37,16.16,24.51,16.16,42.43h-15.1c0-13.49-4.13-24.26-12.38-32.31-8.26-8.05-19.23-12.08-32.92-12.08s-25.17,3.53-33.22,10.57c-8.05,7.05-12.08,16.81-12.08,29.29,0,10.87,3.12,20.38,9.36,28.54,6.24,8.15,14.69,13.94,25.37,17.37l25.37,7.85c14.9,4.63,26.73,12.49,35.48,23.56,8.76,11.07,13.14,23.86,13.14,38.35,0,11.68-2.57,21.8-7.7,30.35-5.13,8.56-12.43,15.2-21.9,19.93-9.47,4.73-20.74,7.1-33.82,7.1h0Z"/>
    <path class="st1" d="M753.33,263.52c-13.49,0-25.22-2.42-35.18-7.25-9.97-4.83-17.67-11.67-23.1-20.54-5.44-8.86-8.15-19.22-8.15-31.11h15.1c0,13.69,4.68,24.67,14.04,32.92,9.36,8.26,21.79,12.38,37.3,12.38s26.92-3.77,35.48-11.32,12.83-18.07,12.83-31.56c0-11.67-3.32-21.84-9.97-30.5-6.64-8.65-15.7-14.69-27.18-18.12l-25.37-7.55c-14.5-4.43-25.82-11.83-33.97-22.2-8.15-10.37-12.23-22.7-12.23-37,0-11.27,2.46-20.99,7.4-29.14,4.93-8.15,11.98-14.44,21.14-18.88,9.16-4.43,19.88-6.64,32.16-6.64,18.52,0,33.17,5.19,43.94,15.55,10.77,10.37,16.16,24.51,16.16,42.43h-15.1c0-13.49-4.13-24.26-12.38-32.31-8.26-8.05-19.23-12.08-32.92-12.08s-25.17,3.53-33.22,10.57c-8.05,7.05-12.08,16.81-12.08,29.29,0,10.87,3.12,20.38,9.36,28.54,6.24,8.15,14.69,13.94,25.37,17.37l25.37,7.85c14.9,4.63,26.73,12.49,35.48,23.56,8.76,11.07,13.14,23.86,13.14,38.35,0,11.68-2.57,21.8-7.7,30.35-5.13,8.56-12.43,15.2-21.9,19.93-9.47,4.73-20.74,7.1-33.82,7.1h0Z"/>
    <path class="st1" d="M925.76,260.5V53.93h-65.23v-13.89h144.96v13.89h-64.63v206.57h-15.1Z"/>
    <path class="st1" d="M1044.15,260.5l60.7-220.46h18.72l60.7,220.46h-15.7l-16.91-63.42h-75.5l-16.91,63.42h-15.1,0ZM1079.78,183.49h68.25l-23.86-89.09c-2.82-10.87-5.09-19.98-6.79-27.33-1.71-7.35-2.77-12.13-3.17-14.34-.41,2.22-1.51,7-3.32,14.34-1.81,7.35-4.13,16.46-6.95,27.33l-24.16,89.09Z"/>
  </g>
  <g>
    <path class="st0" d="M111.13,300.38h-6C47.16,300.38,0,253.22,0,195.25V0h111.13v12H12v183.25c0,51.35,41.78,93.13,93.13,93.13h6v12Z"/>
    <path class="st0" d="M96.11,196.14c-15.1,0-30.2-6.06-45.2-18.19-2.15-1.74-2.48-4.88-.74-7.03s4.88-2.48,7.03-.75c26.18,21.17,51.64,21.17,77.82,0,2.15-1.74,5.3-1.4,7.03.75,1.74,2.15,1.4,5.3-.74,7.03-15,12.12-30.1,18.19-45.2,18.19Z"/>
    <path class="st2" d="M265.53,300.38v-12c51.35,0,93.13-41.78,93.13-93.13V12h-99.13V0h111.13v195.25c0,57.97-47.16,105.13-105.13,105.13Z"/>
    <path class="st2" d="M232.49,196.13c-1.46,0-2.9-.63-3.89-1.86-1.74-2.15-1.4-5.3.74-7.03,29.99-24.25,60.4-24.25,90.4,0,2.15,1.74,2.48,4.88.74,7.03-1.74,2.15-4.88,2.48-7.03.75-26.18-21.17-51.64-21.17-77.82,0-.93.75-2.04,1.11-3.14,1.11Z"/>
  </g>
</svg>