<?xml version="1.0" encoding="UTF-8"?>
<svg id="Layer_1" data-name="Layer 1" xmlns="http://www.w3.org/2000/svg" viewBox="0 0 2059.44 300.38">
  <defs>
    <style>
      .cls-1, .cls-2 {
        stroke-linecap: square;
        stroke-width: 12px;
      }

      .cls-1, .cls-2, .cls-3, .cls-4 {
        fill: none;
      }

      .cls-1, .cls-3 {
        stroke: #10100f;
      }

      .cls-2, .cls-4 {
        stroke: #3c704b;
      }

      .cls-5 {
        fill: #231f20;
      }

      .cls-3, .cls-4 {
        stroke-linecap: round;
        stroke-width: 10px;
      }
    </style>
  </defs>
  <g>
    <path class="cls-5" d="M535.49,136.51c-7.91,0-14.78-1.42-20.62-4.25s-10.35-6.84-13.54-12.04c-3.19-5.19-4.78-11.27-4.78-18.23h8.85c0,8.03,2.74,14.46,8.23,19.29,5.49,4.84,12.77,7.26,21.86,7.26s15.78-2.21,20.8-6.64c5.01-4.42,7.52-10.59,7.52-18.5,0-6.84-1.95-12.8-5.84-17.88-3.89-5.07-9.2-8.61-15.93-10.62l-14.87-4.42c-8.5-2.59-15.13-6.93-19.91-13.01-4.78-6.08-7.17-13.3-7.17-21.68,0-6.61,1.44-12.3,4.34-17.08,2.89-4.78,7.02-8.47,12.39-11.06,5.37-2.59,11.65-3.89,18.85-3.89,10.85,0,19.44,3.04,25.75,9.12,6.31,6.08,9.47,14.37,9.47,24.87h-8.85c0-7.9-2.42-14.22-7.26-18.94-4.84-4.72-11.27-7.08-19.29-7.08s-14.75,2.07-19.47,6.2c-4.72,4.13-7.08,9.85-7.08,17.17,0,6.37,1.83,11.95,5.49,16.73,3.66,4.78,8.61,8.17,14.87,10.18l14.87,4.6c8.73,2.72,15.66,7.32,20.8,13.81,5.13,6.49,7.7,13.98,7.7,22.48,0,6.84-1.5,12.77-4.51,17.79-3.01,5.02-7.29,8.91-12.83,11.68-5.55,2.77-12.15,4.16-19.82,4.16Z"/>
    <path class="cls-5" d="M640.81,136.51c-6.96,0-13.04-1.45-18.23-4.34-5.19-2.89-9.2-6.99-12.04-12.3-2.83-5.31-4.25-11.56-4.25-18.76v-61.95c0-7.2,1.42-13.42,4.25-18.67,2.83-5.25,6.84-9.35,12.04-12.3,5.19-2.95,11.27-4.42,18.23-4.42s13.04,1.48,18.23,4.42c5.19,2.95,9.2,7.05,12.04,12.3,2.83,5.25,4.25,11.48,4.25,18.67v61.95c0,7.2-1.42,13.45-4.25,18.76s-6.81,9.41-11.95,12.3c-5.13,2.89-11.24,4.34-18.32,4.34ZM640.81,128.72c8.14,0,14.45-2.42,18.94-7.26,4.48-4.84,6.73-11.62,6.73-20.35v-61.95c0-8.73-2.27-15.52-6.81-20.35-4.54-4.84-10.83-7.26-18.85-7.26s-14.31,2.42-18.85,7.26c-4.54,4.84-6.81,11.62-6.81,20.35v61.95c0,8.73,2.24,15.52,6.73,20.35,4.48,4.84,10.8,7.26,18.94,7.26Z"/>
    <path class="cls-5" d="M747.18,136.51c-10.39,0-18.67-3.21-24.87-9.65-6.19-6.43-9.29-15.01-9.29-25.75V5.53h8.85v95.58c0,8.61,2.24,15.34,6.73,20.18,4.48,4.84,10.68,7.26,18.58,7.26s14.04-2.42,18.41-7.26c4.36-4.84,6.55-11.56,6.55-20.18V5.53h8.85v95.58c0,10.74-3.07,19.32-9.2,25.75-6.14,6.43-14.34,9.65-24.6,9.65Z"/>
    <path class="cls-5" d="M848.96,134.74V13.67h-38.23V5.53h84.96v8.14h-37.88v121.07h-8.85Z"/>
    <path class="cls-5" d="M925.77,134.74V5.53h8.85v58.06h49.56V5.53h8.85v129.21h-8.85v-63.01h-49.56v63.01h-8.85Z"/>
    <path class="cls-5" d="M1172.68,136.51c-7.91,0-14.78-1.42-20.62-4.25s-10.35-6.84-13.54-12.04c-3.19-5.19-4.78-11.27-4.78-18.23h8.85c0,8.03,2.74,14.46,8.23,19.29,5.49,4.84,12.77,7.26,21.86,7.26s15.78-2.21,20.8-6.64c5.01-4.42,7.52-10.59,7.52-18.5,0-6.84-1.95-12.8-5.84-17.88-3.89-5.07-9.2-8.61-15.93-10.62l-14.87-4.42c-8.5-2.59-15.13-6.93-19.91-13.01-4.78-6.08-7.17-13.3-7.17-21.68,0-6.61,1.44-12.3,4.34-17.08,2.89-4.78,7.02-8.47,12.39-11.06,5.37-2.59,11.65-3.89,18.85-3.89,10.85,0,19.44,3.04,25.75,9.12,6.31,6.08,9.47,14.37,9.47,24.87h-8.85c0-7.9-2.42-14.22-7.26-18.94-4.84-4.72-11.27-7.08-19.29-7.08s-14.75,2.07-19.47,6.2c-4.72,4.13-7.08,9.85-7.08,17.17,0,6.37,1.83,11.95,5.49,16.73,3.66,4.78,8.61,8.17,14.87,10.18l14.87,4.6c8.73,2.72,15.66,7.32,20.8,13.81,5.13,6.49,7.7,13.98,7.7,22.48,0,6.84-1.5,12.77-4.51,17.79-3.01,5.02-7.29,8.91-12.83,11.68-5.55,2.77-12.15,4.16-19.82,4.16Z"/>
    <path class="cls-5" d="M1278,136.51c-6.96,0-13.04-1.45-18.23-4.34-5.19-2.89-9.2-6.99-12.04-12.3s-4.25-11.56-4.25-18.76v-61.95c0-7.2,1.42-13.42,4.25-18.67,2.83-5.25,6.84-9.35,12.04-12.3,5.19-2.95,11.27-4.42,18.23-4.42s13.04,1.48,18.23,4.42c5.19,2.95,9.2,7.05,12.04,12.3,2.83,5.25,4.25,11.48,4.25,18.67v61.95c0,7.2-1.42,13.45-4.25,18.76s-6.81,9.41-11.95,12.3c-5.13,2.89-11.24,4.34-18.32,4.34ZM1278,128.72c8.14,0,14.45-2.42,18.94-7.26,4.48-4.84,6.73-11.62,6.73-20.35v-61.95c0-8.73-2.27-15.52-6.81-20.35-4.54-4.84-10.83-7.26-18.85-7.26s-14.31,2.42-18.85,7.26c-4.54,4.84-6.81,11.62-6.81,20.35v61.95c0,8.73,2.24,15.52,6.73,20.35,4.48,4.84,10.8,7.26,18.94,7.26Z"/>
    <path class="cls-5" d="M1384.37,136.51c-10.39,0-18.67-3.21-24.87-9.65-6.19-6.43-9.29-15.01-9.29-25.75V5.53h8.85v95.58c0,8.61,2.24,15.34,6.73,20.18,4.48,4.84,10.68,7.26,18.58,7.26s14.04-2.42,18.41-7.26c4.36-4.84,6.55-11.56,6.55-20.18V5.53h8.85v95.58c0,10.74-3.07,19.32-9.2,25.75-6.14,6.43-14.34,9.65-24.6,9.65Z"/>
    <path class="cls-5" d="M1456.76,134.74V5.53h12.04l47.44,119.48c-.12-2.36-.24-4.96-.35-7.79-.12-2.83-.21-5.43-.27-7.79-.06-2.36-.09-3.95-.09-4.78V5.53h8.5v129.21h-12.21l-46.9-119.48c.12,1.06.18,2.63.18,4.69s.03,4.43.09,7.08c.06,2.66.09,5.52.09,8.58v99.12h-8.5Z"/>
    <path class="cls-5" d="M1562.96,134.74V5.53h28.32c8.02,0,15.01,1.62,20.97,4.87,5.96,3.25,10.59,7.79,13.89,13.63,3.3,5.84,4.96,12.66,4.96,20.44v51.33c0,7.79-1.65,14.6-4.96,20.44-3.3,5.84-7.94,10.38-13.89,13.63-5.96,3.25-12.95,4.87-20.97,4.87h-28.32ZM1571.81,126.6h19.47c9.32,0,16.82-2.8,22.48-8.41,5.66-5.6,8.5-13.07,8.5-22.39v-51.33c0-9.2-2.86-16.64-8.58-22.3-5.72-5.66-13.19-8.5-22.39-8.5h-19.47v112.93Z"/>
    <path class="cls-5" d="M530.36,297.74v-121.07h-38.23v-8.14h84.96v8.14h-37.88v121.07h-8.85Z"/>
    <path class="cls-5" d="M607.18,297.74v-129.21h8.85v58.06h49.56v-58.06h8.85v129.21h-8.85v-63.01h-49.56v63.01h-8.85Z"/>
    <path class="cls-5" d="M715.15,297.74v-129.21h69.03v8.14h-60.18v49.74h53.99v7.96h-53.99v55.22h60.18v8.14h-69.03Z"/>
    <path class="cls-5" d="M812.14,297.74l35.58-129.21h10.97l35.58,129.21h-9.2l-9.91-37.17h-44.25l-9.91,37.17h-8.85ZM833.03,252.6h40l-13.98-52.21c-1.65-6.37-2.98-11.71-3.98-16.02-1-4.31-1.62-7.11-1.86-8.41-.24,1.3-.88,4.1-1.95,8.41-1.06,4.31-2.42,9.65-4.07,16.02l-14.16,52.21Z"/>
    <path class="cls-5" d="M955.15,297.74v-121.07h-38.23v-8.14h84.96v8.14h-37.88v121.07h-8.85Z"/>
    <path class="cls-5" d="M1031.97,297.74v-129.21h36.29c7.67,0,14.28,1.45,19.82,4.34,5.54,2.89,9.82,7.02,12.83,12.39,3.01,5.37,4.51,11.71,4.51,19.03,0,9.32-2.63,17.11-7.88,23.36-5.25,6.26-12.42,10.03-21.51,11.33l30.27,58.76h-10.62l-29.21-58.41h-25.67v58.41h-8.85ZM1040.82,231.36h27.43c8.61,0,15.49-2.51,20.62-7.52,5.13-5.01,7.7-11.65,7.7-19.91s-2.57-15.01-7.7-19.91c-5.13-4.89-12.01-7.35-20.62-7.35h-27.43v54.69Z"/>
    <path class="cls-5" d="M1139.94,297.74v-129.21h69.03v8.14h-60.18v49.74h53.99v7.96h-53.99v55.22h60.18v8.14h-69.03Z"/>
    <path class="cls-5" d="M1343.13,297.74l35.58-129.21h10.97l35.58,129.21h-9.2l-9.91-37.17h-44.25l-9.91,37.17h-8.85ZM1364.02,252.6h40l-13.98-52.21c-1.65-6.37-2.98-11.71-3.98-16.02-1-4.31-1.62-7.11-1.86-8.41-.24,1.3-.88,4.1-1.95,8.41-1.06,4.31-2.42,9.65-4.07,16.02l-14.16,52.21Z"/>
    <path class="cls-5" d="M1456.76,297.74v-129.21h36.29c7.67,0,14.28,1.45,19.82,4.34,5.54,2.89,9.82,7.02,12.83,12.39,3.01,5.37,4.51,11.71,4.51,19.03,0,9.32-2.63,17.11-7.88,23.36-5.25,6.26-12.42,10.03-21.51,11.33l30.27,58.76h-10.62l-29.21-58.41h-25.67v58.41h-8.85ZM1465.61,231.36h27.43c8.61,0,15.49-2.51,20.62-7.52,5.13-5.01,7.7-11.65,7.7-19.91s-2.57-15.01-7.7-19.91c-5.13-4.89-12.01-7.35-20.62-7.35h-27.43v54.69Z"/>
    <path class="cls-5" d="M1592.34,297.74v-121.07h-38.23v-8.14h84.96v8.14h-37.88v121.07h-8.85Z"/>
    <path class="cls-5" d="M1670.93,297.74v-8.14h27.61v-113.1h-27.61v-8.14h63.72v8.14h-27.26v113.1h27.26v8.14h-63.72Z"/>
    <path class="cls-5" d="M1809.87,299.51c-7.91,0-14.78-1.42-20.62-4.25-5.84-2.83-10.35-6.84-13.54-12.04-3.19-5.19-4.78-11.27-4.78-18.23h8.85c0,8.03,2.74,14.46,8.23,19.29,5.49,4.84,12.77,7.26,21.86,7.26s15.78-2.21,20.8-6.64c5.01-4.43,7.52-10.59,7.52-18.5,0-6.84-1.95-12.8-5.84-17.88-3.89-5.07-9.2-8.61-15.93-10.62l-14.87-4.42c-8.5-2.59-15.13-6.93-19.91-13.01-4.78-6.08-7.17-13.3-7.17-21.68,0-6.61,1.44-12.3,4.34-17.08,2.89-4.78,7.02-8.47,12.39-11.06,5.37-2.59,11.65-3.89,18.85-3.89,10.85,0,19.44,3.04,25.75,9.12,6.31,6.08,9.47,14.37,9.47,24.87h-8.85c0-7.9-2.42-14.22-7.26-18.94-4.84-4.72-11.27-7.08-19.29-7.08s-14.75,2.07-19.47,6.2c-4.72,4.13-7.08,9.85-7.08,17.17,0,6.37,1.83,11.95,5.49,16.73,3.66,4.78,8.61,8.17,14.87,10.18l14.87,4.6c8.73,2.72,15.66,7.32,20.8,13.81,5.13,6.49,7.7,13.98,7.7,22.48,0,6.85-1.5,12.77-4.51,17.79-3.01,5.02-7.29,8.91-12.83,11.68-5.55,2.77-12.15,4.16-19.82,4.16Z"/>
    <path class="cls-5" d="M1910.94,297.74v-121.07h-38.23v-8.14h84.96v8.14h-37.88v121.07h-8.85Z"/>
    <path class="cls-5" d="M2022.27,299.51c-7.91,0-14.78-1.42-20.62-4.25-5.84-2.83-10.35-6.84-13.54-12.04-3.19-5.19-4.78-11.27-4.78-18.23h8.85c0,8.03,2.74,14.46,8.23,19.29,5.49,4.84,12.77,7.26,21.86,7.26s15.78-2.21,20.8-6.64c5.01-4.43,7.52-10.59,7.52-18.5,0-6.84-1.95-12.8-5.84-17.88-3.89-5.07-9.2-8.61-15.93-10.62l-14.87-4.42c-8.5-2.59-15.13-6.93-19.91-13.01-4.78-6.08-7.17-13.3-7.17-21.68,0-6.61,1.44-12.3,4.34-17.08,2.89-4.78,7.02-8.47,12.39-11.06,5.37-2.59,11.65-3.89,18.85-3.89,10.85,0,19.44,3.04,25.75,9.12,6.31,6.08,9.47,14.37,9.47,24.87h-8.85c0-7.9-2.42-14.22-7.26-18.94-4.84-4.72-11.27-7.08-19.29-7.08s-14.75,2.07-19.47,6.2c-4.72,4.13-7.08,9.85-7.08,17.17,0,6.37,1.83,11.95,5.49,16.73,3.66,4.78,8.61,8.17,14.87,10.18l14.87,4.6c8.73,2.72,15.66,7.32,20.8,13.81,5.13,6.49,7.7,13.98,7.7,22.48,0,6.85-1.5,12.77-4.51,17.79-3.01,5.02-7.29,8.91-12.83,11.68-5.55,2.77-12.15,4.16-19.82,4.16Z"/>
  </g>
  <g>
    <path class="cls-1" d="M105.13,6H6v288.38h99.13"/>
    <path class="cls-3" d="M54.06,174.07c28.04,22.67,56.07,22.67,84.11,0"/>
    <path class="cls-2" d="M265.53,6h99.13v288.38h-99.13"/>
    <path class="cls-4" d="M232.49,191.13c28.04-22.67,56.07-22.67,84.11,0"/>
  </g>
</svg>