<?xml version="1.0" encoding="UTF-8"?>
<svg id="Layer_1" data-name="Layer 1" xmlns="http://www.w3.org/2000/svg" viewBox="0 0 1177.56 258.5">
  <g>
    <path d="M319.22,114.33c-5.86,0-10.88-1.17-15.07-3.5-4.2-2.33-7.44-5.67-9.73-10.01-2.3-4.34-3.44-9.51-3.44-15.52h12.7c0,4.77,1.38,8.51,4.15,11.23,2.77,2.72,6.61,4.08,11.51,4.08,4.59,0,8.19-1.33,10.8-4,2.61-2.67,3.92-6.34,3.92-11.01,0-3.91-.89-7.29-2.67-10.15-1.78-2.86-4.33-4.81-7.66-5.86l-10.92-3.86c-6.33-2.19-11.22-5.93-14.66-11.23-3.44-5.29-5.16-11.61-5.16-18.95,0-5.72,1.07-10.73,3.21-15.02s5.18-7.63,9.14-10.01c3.96-2.38,8.62-3.57,14.01-3.57,7.91,0,14.26,2.57,19.05,7.72,4.79,5.15,7.22,12.06,7.3,20.74h-12.82c0-4.58-1.21-8.17-3.62-10.8-2.41-2.62-5.8-3.93-10.15-3.93s-7.48,1.22-9.85,3.65c-2.37,2.43-3.56,5.84-3.56,10.22,0,3.91.89,7.29,2.67,10.15s4.33,4.86,7.66,6.01l11.04,4c6.33,2.1,11.2,5.82,14.6,11.15,3.4,5.34,5.1,11.73,5.1,19.16,0,5.82-1.15,10.94-3.44,15.37-2.3,4.43-5.5,7.87-9.61,10.3-4.12,2.43-8.94,3.65-14.48,3.65Z"/>
    <path d="M378.2,114.33c-5.38,0-10.03-1.22-13.95-3.65-3.92-2.43-6.92-5.96-9.02-10.58-2.1-4.62-3.15-10.03-3.15-16.23v-46.33c0-6.29,1.05-11.73,3.15-16.3,2.1-4.58,5.1-8.08,9.02-10.51,3.92-2.43,8.56-3.65,13.95-3.65s10.03,1.22,13.95,3.65c3.92,2.43,6.92,5.93,9.02,10.51,2.09,4.58,3.14,9.96,3.14,16.16v46.48c0,6.2-1.05,11.61-3.14,16.23-2.1,4.62-5.1,8.15-9.02,10.58-3.92,2.43-8.57,3.65-13.95,3.65ZM378.2,100.6c4.35,0,7.66-1.45,9.91-4.36,2.26-2.91,3.38-7.03,3.38-12.37v-46.33c0-5.43-1.13-9.58-3.38-12.44-2.25-2.86-5.56-4.29-9.91-4.29s-7.56,1.43-9.85,4.29c-2.3,2.86-3.44,7.01-3.44,12.44v46.33c0,5.34,1.15,9.46,3.44,12.37,2.29,2.91,5.58,4.36,9.85,4.36Z"/>
    <path d="M437.55,114.33c-8.31,0-14.72-2.74-19.23-8.22-4.51-5.48-6.77-12.94-6.77-22.38V8.51h12.82v75.22c0,5.24,1.09,9.39,3.26,12.44,2.17,3.05,5.48,4.58,9.91,4.58s7.64-1.52,9.85-4.58c2.21-3.05,3.32-7.2,3.32-12.44V8.51h12.82v75.22c0,9.44-2.25,16.9-6.76,22.38-4.51,5.48-10.92,8.22-19.23,8.22Z"/>
    <path d="M490.48,112.9V22.67h-23.14v-14.3h59.11v14.3h-23.14v90.23h-12.82Z"/>
    <path d="M530.72,112.9V8.51h12.82v43.19h25.4V8.51h12.82v104.39h-12.82v-46.9h-25.4v46.9h-12.82Z"/>
    <path d="M675.28,114.33c-5.86,0-10.88-1.17-15.07-3.5-4.2-2.33-7.44-5.67-9.73-10.01-2.3-4.34-3.44-9.51-3.44-15.52h12.7c0,4.77,1.38,8.51,4.15,11.23,2.77,2.72,6.61,4.08,11.51,4.08,4.59,0,8.19-1.33,10.8-4,2.61-2.67,3.92-6.34,3.92-11.01,0-3.91-.89-7.29-2.67-10.15-1.78-2.86-4.33-4.81-7.66-5.86l-10.92-3.86c-6.33-2.19-11.22-5.93-14.66-11.23-3.44-5.29-5.16-11.61-5.16-18.95,0-5.72,1.07-10.73,3.21-15.02s5.18-7.63,9.14-10.01c3.96-2.38,8.62-3.57,14.01-3.57,7.91,0,14.26,2.57,19.05,7.72,4.79,5.15,7.22,12.06,7.3,20.74h-12.82c0-4.58-1.21-8.17-3.62-10.8-2.41-2.62-5.8-3.93-10.15-3.93s-7.48,1.22-9.85,3.65c-2.37,2.43-3.56,5.84-3.56,10.22,0,3.91.89,7.29,2.67,10.15s4.33,4.86,7.66,6.01l11.04,4c6.33,2.1,11.2,5.82,14.6,11.15,3.4,5.34,5.1,11.73,5.1,19.16,0,5.82-1.15,10.94-3.44,15.37-2.3,4.43-5.5,7.87-9.61,10.3-4.12,2.43-8.94,3.65-14.48,3.65Z"/>
    <path d="M734.27,114.33c-5.38,0-10.03-1.22-13.95-3.65-3.92-2.43-6.92-5.96-9.02-10.58-2.1-4.62-3.15-10.03-3.15-16.23v-46.33c0-6.29,1.05-11.73,3.15-16.3,2.1-4.58,5.1-8.08,9.02-10.51,3.92-2.43,8.56-3.65,13.95-3.65s10.03,1.22,13.95,3.65c3.92,2.43,6.92,5.93,9.02,10.51,2.09,4.58,3.14,9.96,3.14,16.16v46.48c0,6.2-1.05,11.61-3.14,16.23-2.1,4.62-5.1,8.15-9.02,10.58-3.92,2.43-8.57,3.65-13.95,3.65ZM734.27,100.6c4.35,0,7.66-1.45,9.91-4.36,2.26-2.91,3.38-7.03,3.38-12.37v-46.33c0-5.43-1.13-9.58-3.38-12.44-2.25-2.86-5.56-4.29-9.91-4.29s-7.56,1.43-9.85,4.29c-2.3,2.86-3.44,7.01-3.44,12.44v46.33c0,5.34,1.15,9.46,3.44,12.37,2.29,2.91,5.58,4.36,9.85,4.36Z"/>
    <path d="M793.61,114.33c-8.31,0-14.72-2.74-19.23-8.22-4.51-5.48-6.77-12.94-6.77-22.38V8.51h12.82v75.22c0,5.24,1.09,9.39,3.26,12.44,2.18,3.05,5.48,4.58,9.91,4.58s7.63-1.52,9.85-4.58c2.21-3.05,3.32-7.2,3.32-12.44V8.51h12.82v75.22c0,9.44-2.25,16.9-6.77,22.38-4.51,5.48-10.92,8.22-19.23,8.22Z"/>
    <path d="M826.96,112.9V8.51h16.14l25.28,86.8c-.16-2.76-.36-6.05-.59-9.87-.24-3.81-.42-7.77-.53-11.87-.12-4.1-.18-7.82-.18-11.15V8.51h11.87v104.39h-16.14l-25.16-86.8c.16,2.48.34,5.58.53,9.29.2,3.72.36,7.58.47,11.58.12,4,.18,7.72.18,11.15v54.77h-11.87Z"/>
    <path d="M886.54,112.9V8.51h24.21c5.7,0,10.64,1.31,14.84,3.93,4.19,2.62,7.46,6.32,9.79,11.08,2.33,4.77,3.5,10.39,3.5,16.87v40.47c0,6.39-1.17,12.01-3.5,16.87-2.33,4.86-5.6,8.6-9.79,11.23-4.2,2.62-9.14,3.93-14.84,3.93h-24.21ZM899.36,98.89h11.39c4.75,0,8.49-1.6,11.22-4.79,2.73-3.19,4.09-7.6,4.09-13.23v-40.47c0-5.53-1.37-9.89-4.09-13.08-2.73-3.19-6.47-4.79-11.22-4.79h-11.39v76.36Z"/>
    <path d="M312.45,240.9v-90.23h-23.14v-14.3h59.11v14.3h-23.14v90.23h-12.82Z"/>
    <path d="M352.68,240.9v-104.39h12.82v43.19h25.4v-43.19h12.82v104.39h-12.82v-46.9h-25.4v46.9h-12.82Z"/>
    <path d="M413.1,240.9v-104.39h50.92v13.73h-38.34v29.6h34.18v13.58h-34.18v33.75h38.34v13.73h-50.92Z"/>
    <path d="M466.39,240.9l22.08-104.39h16.85l22.08,104.39h-12.94l-5.22-26.46h-24.57l-5.22,26.46h-13.06ZM487.04,201.72h19.7l-5.93-30.17c-1.03-5.34-1.88-9.99-2.55-13.94-.67-3.96-1.13-6.65-1.37-8.08-.24,1.43-.67,4.12-1.31,8.08-.63,3.96-1.5,8.56-2.61,13.8l-5.93,30.32Z"/>
    <path d="M549.83,240.9v-90.23h-23.14v-14.3h59.11v14.3h-23.14v90.23h-12.82Z"/>
    <path d="M589.94,240.9v-104.39h27.18c5.46,0,10.21,1.26,14.24,3.79,4.04,2.53,7.18,6.08,9.44,10.65,2.25,4.58,3.38,9.96,3.38,16.16,0,6.96-1.48,12.99-4.45,18.09-2.97,5.1-6.98,8.7-12.05,10.8l17.68,44.9h-14.6l-15.79-42.9h-12.23v42.9h-12.82ZM602.76,184.42h14.36c4.27,0,7.67-1.55,10.21-4.65,2.53-3.1,3.8-7.22,3.8-12.37s-1.27-9.53-3.8-12.58c-2.53-3.05-5.93-4.58-10.21-4.58h-14.36v34.18Z"/>
    <path d="M650.47,240.9v-104.39h50.92v13.73h-38.34v29.6h34.18v13.58h-34.18v33.75h38.34v13.73h-50.92Z"/>
    <path d="M763.11,240.9l22.08-104.39h16.85l22.08,104.39h-12.94l-5.22-26.46h-24.57l-5.22,26.46h-13.06ZM783.76,201.72h19.7l-5.93-30.17c-1.03-5.34-1.88-9.99-2.55-13.94-.67-3.96-1.13-6.65-1.37-8.08-.24,1.43-.67,4.12-1.31,8.08-.63,3.96-1.5,8.56-2.61,13.8l-5.93,30.32Z"/>
    <path d="M827.32,240.9v-104.39h27.18c5.46,0,10.21,1.26,14.24,3.79,4.04,2.53,7.18,6.08,9.44,10.65,2.25,4.58,3.38,9.96,3.38,16.16,0,6.96-1.48,12.99-4.45,18.09-2.97,5.1-6.98,8.7-12.05,10.8l17.68,44.9h-14.6l-15.79-42.9h-12.23v42.9h-12.82ZM840.14,184.42h14.36c4.27,0,7.67-1.55,10.21-4.65,2.53-3.1,3.8-7.22,3.8-12.37s-1.27-9.53-3.8-12.58c-2.53-3.05-5.93-4.58-10.21-4.58h-14.36v34.18Z"/>
    <path d="M905.89,240.9v-90.23h-23.14v-14.3h59.11v14.3h-23.14v90.23h-12.82Z"/>
    <path d="M947.67,240.9v-13.73h17.45v-76.93h-17.45v-13.73h47.95v13.73h-17.45v76.93h17.45v13.73h-47.95Z"/>
    <path d="M1031.34,242.33c-5.86,0-10.88-1.17-15.07-3.5-4.2-2.33-7.44-5.67-9.73-10.01-2.3-4.34-3.44-9.51-3.44-15.52h12.7c0,4.77,1.38,8.51,4.15,11.23,2.77,2.72,6.61,4.08,11.51,4.08,4.59,0,8.19-1.33,10.8-4,2.61-2.67,3.92-6.34,3.92-11.01,0-3.91-.89-7.29-2.67-10.15-1.78-2.86-4.33-4.81-7.66-5.86l-10.92-3.86c-6.33-2.19-11.22-5.93-14.66-11.23-3.44-5.29-5.16-11.61-5.16-18.95,0-5.72,1.07-10.73,3.2-15.02,2.14-4.29,5.18-7.63,9.14-10.01,3.96-2.38,8.62-3.57,14-3.57,7.91,0,14.26,2.57,19.05,7.72,4.79,5.15,7.22,12.06,7.3,20.74h-12.82c0-4.58-1.21-8.17-3.62-10.8-2.42-2.62-5.8-3.93-10.15-3.93s-7.48,1.22-9.85,3.65c-2.37,2.43-3.56,5.84-3.56,10.22,0,3.91.89,7.29,2.67,10.15s4.33,4.86,7.66,6.01l11.04,4c6.33,2.1,11.2,5.82,14.6,11.15,3.4,5.34,5.1,11.73,5.1,19.16,0,5.82-1.15,10.94-3.44,15.37-2.3,4.43-5.5,7.87-9.61,10.3-4.12,2.43-8.94,3.65-14.48,3.65Z"/>
    <path d="M1083.92,240.9v-90.23h-23.14v-14.3h59.11v14.3h-23.14v90.23h-12.82Z"/>
    <path d="M1150.03,242.33c-5.86,0-10.88-1.17-15.07-3.5-4.2-2.33-7.44-5.67-9.73-10.01-2.3-4.34-3.44-9.51-3.44-15.52h12.7c0,4.77,1.38,8.51,4.15,11.23,2.77,2.72,6.61,4.08,11.51,4.08,4.59,0,8.19-1.33,10.8-4,2.61-2.67,3.92-6.34,3.92-11.01,0-3.91-.89-7.29-2.67-10.15-1.78-2.86-4.33-4.81-7.66-5.86l-10.92-3.86c-6.33-2.19-11.22-5.93-14.66-11.23-3.44-5.29-5.16-11.61-5.16-18.95,0-5.72,1.07-10.73,3.21-15.02s5.18-7.63,9.14-10.01c3.96-2.38,8.62-3.57,14.01-3.57,7.91,0,14.26,2.57,19.05,7.72,4.79,5.15,7.22,12.06,7.3,20.74h-12.82c0-4.58-1.21-8.17-3.62-10.8-2.41-2.62-5.8-3.93-10.15-3.93s-7.48,1.22-9.85,3.65c-2.37,2.43-3.56,5.84-3.56,10.22,0,3.91.89,7.29,2.67,10.15s4.33,4.86,7.66,6.01l11.04,4c6.33,2.1,11.2,5.82,14.6,11.15,3.4,5.34,5.1,11.73,5.1,19.16,0,5.82-1.15,10.94-3.44,15.37-2.3,4.43-5.5,7.87-9.61,10.3-4.12,2.43-8.94,3.65-14.48,3.65Z"/>
  </g>
  <path d="M93.13,193.7c-33.34-1.26-59.08-25.88-72.3-53.81C3.69,103.46,2.06,62.93,0,24.45c-.04-.68.56-1.22,1.24-1.13C49.9,30.21,103.7,15.59,149.93.06c.62-.21,1.28.17,1.41.81,8.62,42.38,15.63,85.51,5.36,127.64-6.62,24.5-20.87,45.41-43.01,58.79-5.92,3.58-12.79,6.69-20.57,6.39ZM69.6,88.61c.82.04,1.41-.79,1.06-1.53-4.57-9.68-15.7-15.26-24.11-13.53-9.21,2.38-15.06,11.05-15.41,20.47-.03.8.8,1.35,1.54,1.03,12.21-5.37,23.78-7.12,36.93-6.44ZM75.26,160.37c13.29,5.73,27.87,3.45,37.95-5.91,6.73-6.25,12.33-13.79,13.23-23.36.08-.85-.83-1.45-1.59-1.05-23.73,12.36-43.72,15-69.16,8.65-.75-.19-1.44.43-1.35,1.19.84,7.29,12.83,16.99,20.93,20.48ZM141.06,74.98c.82-.01,1.35-.89.95-1.6-5.21-9.35-16.69-14.17-24.97-11.88-9.03,2.99-14.28,12.04-14,21.46.02.8.89,1.29,1.6.92,11.82-6.18,23.25-8.7,36.42-8.9Z"/>
  <path d="M259.63,89.07c-27.16.56-56.49.13-84.8-4-.1,15.47-1.69,31.02-5.47,46.53l-.08.31c-7.82,28.94-24.71,51.95-48.84,66.54-4.81,2.91-11.77,6.59-20.3,7.85,8.07,22.35,23.68,42.15,47.38,50.57,7.33,2.6,14.82,1.69,21.54.05,25.13-6.15,44.98-21.85,58.62-43.24,22.4-37.13,28.6-80.39,33.05-123.41.07-.65-.45-1.21-1.1-1.2ZM192.94,228.39c-23.38-13.01-43.29-16.19-68.9-10.53-.75.17-1.42-.47-1.32-1.23,1.04-7.27,13.29-16.63,21.48-19.9,13.45-5.37,27.95-2.68,37.77,6.95,6.56,6.43,11.95,14.12,12.58,23.71.06.86-.87,1.42-1.62,1.01ZM231.4,143.6c-4.13,9.88-14.99,15.96-23.48,14.6-9.31-1.96-15.54-10.36-16.32-19.76-.07-.8.74-1.38,1.49-1.09,12.44,4.82,24.08,6.04,37.18,4.76.81-.08,1.44.73,1.12,1.48Z"/>
</svg>