<?xml version="1.0" encoding="UTF-8"?>
<svg id="Layer_1" xmlns="http://www.w3.org/2000/svg" version="1.1" viewBox="0 0 2904.13 258.5">
  <!-- Generator: Adobe Illustrator 30.3.0, SVG Export Plug-In . SVG Version: 2.1.3 Build 182)  -->
  <path d="M93.13,193.7c-33.34-1.26-59.08-25.88-72.3-53.81C3.69,103.46,2.06,62.93,0,24.45c-.04-.68.56-1.22,1.24-1.13C49.9,30.21,103.7,15.59,149.93.06c.62-.21,1.28.17,1.41.81,8.62,42.38,15.63,85.51,5.36,127.64-6.62,24.5-20.87,45.41-43.01,58.79-5.92,3.58-12.79,6.69-20.57,6.39h0ZM69.6,88.61c.82.04,1.41-.79,1.06-1.53-4.57-9.68-15.7-15.26-24.11-13.53-9.21,2.38-15.06,11.05-15.41,20.47-.03.8.8,1.35,1.54,1.03,12.21-5.37,23.78-7.12,36.93-6.44h-.01ZM75.26,160.37c13.29,5.73,27.87,3.45,37.95-5.91,6.73-6.25,12.33-13.79,13.23-23.36.08-.85-.83-1.45-1.59-1.05-23.73,12.36-43.72,15-69.16,8.65-.75-.19-1.44.43-1.35,1.19.84,7.29,12.83,16.99,20.93,20.48h-.01ZM141.06,74.98c.82-.01,1.35-.89.95-1.6-5.21-9.35-16.69-14.17-24.97-11.88-9.03,2.99-14.28,12.04-14,21.46.02.8.89,1.29,1.6.92,11.82-6.18,23.25-8.7,36.42-8.9Z"/>
  <path d="M259.63,89.07c-27.16.56-56.49.13-84.8-4-.1,15.47-1.69,31.02-5.47,46.53l-.08.31c-7.82,28.94-24.71,51.95-48.84,66.54-4.81,2.91-11.77,6.59-20.3,7.85,8.07,22.35,23.68,42.15,47.38,50.57,7.33,2.6,14.82,1.69,21.54.05,25.13-6.15,44.98-21.85,58.62-43.24,22.4-37.13,28.6-80.39,33.05-123.41.07-.65-.45-1.21-1.1-1.2h0ZM192.94,228.39c-23.38-13.01-43.29-16.19-68.9-10.53-.75.17-1.42-.47-1.32-1.23,1.04-7.27,13.29-16.63,21.48-19.9,13.45-5.37,27.95-2.68,37.77,6.95,6.56,6.43,11.95,14.12,12.58,23.71.06.86-.87,1.42-1.62,1.01h0ZM231.4,143.6c-4.13,9.88-14.99,15.96-23.48,14.6-9.31-1.96-15.54-10.36-16.32-19.76-.07-.8.74-1.38,1.49-1.09,12.44,4.82,24.08,6.04,37.18,4.76.81-.08,1.44.73,1.12,1.48h0Z"/>
  <g>
    <path d="M374.93,206.11c-8.67,0-16.1-1.73-22.31-5.18-6.21-3.45-11.01-8.39-14.4-14.81-3.4-6.42-5.09-14.07-5.09-22.96h18.8c0,7.06,2.05,12.59,6.15,16.61,4.1,4.02,9.78,6.03,17.04,6.03,6.79,0,12.12-1.98,15.98-5.93s5.79-9.38,5.79-16.3c0-5.79-1.32-10.79-3.95-15.02s-6.41-7.12-11.33-8.68l-16.16-5.72c-9.37-3.24-16.6-8.78-21.69-16.61-5.09-7.83-7.64-17.17-7.64-28.04,0-8.46,1.58-15.87,4.74-22.22,3.16-6.35,7.67-11.28,13.52-14.81,5.86-3.52,12.76-5.29,20.72-5.29,11.7,0,21.11,3.81,28.19,11.42,7.08,7.62,10.68,17.85,10.8,30.68h-18.97c0-6.77-1.79-12.1-5.36-15.98-3.58-3.88-8.58-5.82-15.02-5.82s-11.06,1.8-14.58,5.4-5.27,8.64-5.27,15.13c0,5.79,1.32,10.79,3.95,15.02s6.41,7.19,11.33,8.89l16.34,5.93c9.37,3.11,16.57,8.6,21.61,16.51s7.55,17.35,7.55,28.35c0,8.6-1.69,16.19-5.09,22.75-3.4,6.56-8.14,11.63-14.23,15.23-6.09,3.6-13.24,5.4-21.43,5.4v.02Z"/>
    <path d="M474.34,206.11c-7.96,0-14.84-1.8-20.64-5.4-5.79-3.6-10.24-8.82-13.34-15.66-3.11-6.84-4.65-14.84-4.65-24.02v-68.56c0-9.31,1.55-17.35,4.65-24.12s7.55-11.95,13.34-15.55,12.67-5.4,20.64-5.4,14.84,1.8,20.64,5.4,10.24,8.78,13.34,15.55c3.1,6.77,4.65,14.74,4.65,23.91v68.77c0,9.17-1.55,17.18-4.65,24.02-3.11,6.85-7.55,12.06-13.34,15.66-5.79,3.6-12.67,5.4-20.64,5.4h0ZM474.34,185.79c6.44,0,11.33-2.15,14.66-6.46,3.33-4.3,5.01-10.4,5.01-18.3v-68.56c0-8.04-1.67-14.18-5.01-18.41-3.33-4.23-8.23-6.35-14.66-6.35s-11.18,2.12-14.58,6.35c-3.4,4.23-5.09,10.37-5.09,18.41v68.56c0,7.9,1.69,14,5.09,18.3,3.4,4.3,8.25,6.46,14.58,6.46Z"/>
    <path d="M574.27,206.11c-12.3,0-21.78-4.05-28.45-12.17s-10.01-19.15-10.01-33.12V49.52h18.97v111.31c0,7.76,1.61,13.9,4.83,18.41,3.22,4.51,8.11,6.77,14.66,6.77s11.3-2.26,14.58-6.77c3.28-4.51,4.92-10.65,4.92-18.41V49.52h18.97v111.31c0,13.97-3.33,25-10.01,33.12s-16.16,12.17-28.45,12.17h0Z"/>
    <path d="M664.73,203.99V70.47h-34.25v-21.16h87.46v21.16h-34.25v133.53h-18.97Z"/>
    <path d="M736.38,203.99V49.52h18.97v63.9h37.59v-63.9h18.97v154.48h-18.97v-69.41h-37.59v69.41h-18.97Z"/>
    <path d="M934.15,206.11c-8.67,0-16.1-1.73-22.31-5.18-6.21-3.45-11.01-8.39-14.4-14.81-3.4-6.42-5.09-14.07-5.09-22.96h18.8c0,7.06,2.05,12.59,6.15,16.61,4.1,4.02,9.78,6.03,17.04,6.03,6.79,0,12.12-1.98,15.98-5.93s5.79-9.38,5.79-16.3c0-5.79-1.32-10.79-3.95-15.02s-6.41-7.12-11.33-8.68l-16.16-5.72c-9.37-3.24-16.6-8.78-21.69-16.61-5.09-7.83-7.64-17.17-7.64-28.04,0-8.46,1.58-15.87,4.74-22.22s7.67-11.28,13.52-14.81c5.86-3.52,12.76-5.29,20.72-5.29,11.7,0,21.11,3.81,28.19,11.42,7.08,7.62,10.68,17.85,10.8,30.68h-18.97c0-6.77-1.79-12.1-5.36-15.98-3.58-3.88-8.58-5.82-15.02-5.82s-11.06,1.8-14.58,5.4-5.27,8.64-5.27,15.13c0,5.79,1.32,10.79,3.95,15.02,2.63,4.23,6.41,7.19,11.33,8.89l16.34,5.93c9.37,3.11,16.57,8.6,21.61,16.51,5.04,7.9,7.55,17.35,7.55,28.35,0,8.6-1.7,16.19-5.09,22.75-3.4,6.56-8.14,11.63-14.23,15.23-6.09,3.6-13.24,5.4-21.43,5.4v.02Z"/>
    <path d="M1033.56,206.11c-7.96,0-14.84-1.8-20.64-5.4-5.79-3.6-10.24-8.82-13.34-15.66-3.1-6.84-4.65-14.84-4.65-24.02v-68.56c0-9.31,1.55-17.35,4.65-24.12s7.55-11.95,13.34-15.55,12.67-5.4,20.64-5.4,14.84,1.8,20.64,5.4,10.24,8.78,13.34,15.55,4.65,14.74,4.65,23.91v68.77c0,9.17-1.55,17.18-4.65,24.02-3.1,6.85-7.55,12.06-13.34,15.66-5.79,3.6-12.67,5.4-20.64,5.4ZM1033.56,185.79c6.44,0,11.33-2.15,14.66-6.46,3.33-4.3,5.01-10.4,5.01-18.3v-68.56c0-8.04-1.67-14.18-5.01-18.41s-8.23-6.35-14.66-6.35-11.18,2.12-14.58,6.35c-3.4,4.23-5.09,10.37-5.09,18.41v68.56c0,7.9,1.69,14,5.09,18.3,3.4,4.3,8.25,6.46,14.58,6.46Z"/>
    <path d="M1133.49,206.11c-12.29,0-21.78-4.05-28.45-12.17-6.68-8.11-10.01-19.15-10.01-33.12V49.52h18.97v111.31c0,7.76,1.61,13.9,4.83,18.41,3.22,4.51,8.11,6.77,14.66,6.77s11.3-2.26,14.58-6.77c3.28-4.51,4.92-10.65,4.92-18.41V49.52h18.97v111.31c0,13.97-3.33,25-10.01,33.12-6.68,8.11-16.16,12.17-28.45,12.17h0Z"/>
    <path d="M1194.96,203.99V49.52h23.89l37.41,128.45c-.23-4.09-.52-8.96-.87-14.6-.35-5.64-.62-11.49-.79-17.56s-.27-11.56-.27-16.51V49.52h17.56v154.48h-23.89l-37.24-128.45c.23,3.67.5,8.25.79,13.76s.52,11.21.7,17.14c.17,5.93.27,11.42.27,16.51v81.04h-17.56Z"/>
    <path d="M1295.26,203.99V49.52h35.83c8.43,0,15.75,1.94,21.96,5.82,6.21,3.88,11.03,9.35,14.49,16.4,3.45,7.06,5.18,15.37,5.18,24.97v59.88c0,9.46-1.73,17.77-5.18,24.97-3.45,7.19-8.28,12.74-14.49,16.61-6.21,3.88-13.52,5.82-21.96,5.82h-35.83ZM1314.22,183.25h16.86c7.03,0,12.56-2.36,16.6-7.09,4.04-4.72,6.06-11.25,6.06-19.58v-59.88c0-8.18-2.02-14.63-6.06-19.37-4.04-4.72-9.57-7.09-16.6-7.09h-16.86v113h0Z"/>
    <path d="M1483.35,203.99V70.47h-34.25v-21.16h87.46v21.16h-34.25v133.53h-18.97Z"/>
    <path d="M1555.01,203.99V49.52h18.97v63.9h37.59v-63.9h18.97v154.48h-18.97v-69.41h-37.59v69.41h-18.97Z"/>
    <path d="M1656.53,203.99V49.52h75.35v20.32h-56.73v43.81h50.58v20.1h-50.58v49.94h56.73v20.32h-75.35,0Z"/>
    <path d="M1747.51,203.99l32.67-154.48h24.94l32.67,154.48h-19.15l-7.73-39.14h-36.36l-7.73,39.14h-19.32ZM1778.07,146.01h29.16l-8.78-44.65c-1.52-7.9-2.78-14.77-3.78-20.63-1-5.86-1.67-9.84-2.02-11.95-.35,2.12-1,6.11-1.93,11.95-.94,5.86-2.23,12.67-3.87,20.42l-8.78,44.86h0Z"/>
    <path d="M1883.1,203.99V70.47h-34.25v-21.16h87.46v21.16h-34.25v133.53h-18.97,0Z"/>
    <path d="M1954.58,203.99V49.52h40.22c8.08,0,15.1,1.87,21.08,5.61,5.97,3.74,10.63,9,13.96,15.77,3.33,6.77,5.01,14.74,5.01,23.91,0,10.3-2.19,19.22-6.59,26.77-4.39,7.55-10.34,12.88-17.83,15.98l26.17,66.44h-21.61l-23.36-63.48h-18.09v63.48h-18.97.02ZM1973.55,120.4h21.25c6.32,0,11.35-2.29,15.1-6.88,3.75-4.58,5.62-10.69,5.62-18.3s-1.87-14.1-5.62-18.62c-3.75-4.51-8.78-6.77-15.1-6.77h-21.25v50.58Z"/>
    <path d="M2056.27,203.99V49.52h75.35v20.32h-56.73v43.81h50.58v20.1h-50.58v49.94h56.73v20.32h-75.35Z"/>
    <path d="M2206.79,203.99l32.67-154.48h24.94l32.67,154.48h-19.15l-7.73-39.14h-36.36l-7.73,39.14h-19.32ZM2237.35,146.01h29.16l-8.78-44.65c-1.52-7.9-2.78-14.77-3.78-20.63-1-5.86-1.67-9.84-2.02-11.95-.35,2.12-1,6.11-1.93,11.95-.94,5.86-2.23,12.67-3.87,20.42l-8.78,44.86h0Z"/>
    <path d="M2313.93,203.99V49.52h40.22c8.08,0,15.1,1.87,21.08,5.61,5.97,3.74,10.63,9,13.96,15.77,3.33,6.77,5.01,14.74,5.01,23.91,0,10.3-2.19,19.22-6.59,26.77-4.39,7.55-10.34,12.88-17.83,15.98l26.17,66.44h-21.61l-23.36-63.48h-18.09v63.48h-18.97.02ZM2332.9,120.4h21.25c6.32,0,11.35-2.29,15.1-6.88,3.75-4.58,5.62-10.69,5.62-18.3s-1.87-14.1-5.62-18.62c-3.75-4.51-8.78-6.77-15.1-6.77h-21.25v50.58Z"/>
    <path d="M2442.32,203.99V70.47h-34.25v-21.16h87.46v21.16h-34.25v133.53h-18.97,0Z"/>
    <path d="M2516.26,203.99v-20.32h25.81v-113.85h-25.81v-20.32h70.96v20.32h-25.81v113.85h25.81v20.32h-70.96Z"/>
    <path d="M2652.2,206.11c-8.67,0-16.1-1.73-22.31-5.18-6.21-3.45-11.01-8.39-14.4-14.81-3.4-6.42-5.09-14.07-5.09-22.96h18.8c0,7.06,2.05,12.59,6.15,16.61,4.1,4.02,9.78,6.03,17.04,6.03,6.79,0,12.12-1.98,15.98-5.93s5.79-9.38,5.79-16.3c0-5.79-1.32-10.79-3.95-15.02s-6.41-7.12-11.33-8.68l-16.16-5.72c-9.37-3.24-16.6-8.78-21.69-16.61-5.09-7.83-7.64-17.17-7.64-28.04,0-8.46,1.58-15.87,4.74-22.22s7.67-11.28,13.52-14.81c5.86-3.52,12.76-5.29,20.72-5.29,11.7,0,21.11,3.81,28.19,11.42,7.08,7.62,10.68,17.85,10.8,30.68h-18.97c0-6.77-1.79-12.1-5.36-15.98-3.58-3.88-8.58-5.82-15.02-5.82s-11.06,1.8-14.58,5.4-5.27,8.64-5.27,15.13c0,5.79,1.32,10.79,3.95,15.02s6.41,7.19,11.33,8.89l16.34,5.93c9.37,3.11,16.57,8.6,21.61,16.51s7.55,17.35,7.55,28.35c0,8.6-1.7,16.19-5.09,22.75-3.4,6.56-8.14,11.63-14.23,15.23s-13.24,5.4-21.43,5.4v.02Z"/>
    <path d="M2742.12,203.99V70.47h-34.25v-21.16h87.46v21.16h-34.25v133.53h-18.97,0Z"/>
    <path d="M2852.07,206.11c-8.67,0-16.1-1.73-22.31-5.18-6.21-3.45-11.01-8.39-14.4-14.81-3.4-6.42-5.09-14.07-5.09-22.96h18.8c0,7.06,2.05,12.59,6.15,16.61,4.1,4.02,9.78,6.03,17.04,6.03,6.79,0,12.12-1.98,15.98-5.93s5.79-9.38,5.79-16.3c0-5.79-1.32-10.79-3.95-15.02s-6.41-7.12-11.33-8.68l-16.16-5.72c-9.37-3.24-16.6-8.78-21.69-16.61-5.09-7.83-7.64-17.17-7.64-28.04,0-8.46,1.58-15.87,4.74-22.22,3.16-6.35,7.67-11.28,13.52-14.81,5.86-3.52,12.76-5.29,20.72-5.29,11.7,0,21.11,3.81,28.19,11.42,7.08,7.62,10.68,17.85,10.8,30.68h-18.97c0-6.77-1.79-12.1-5.36-15.98-3.58-3.88-8.58-5.82-15.02-5.82s-11.06,1.8-14.58,5.4-5.27,8.64-5.27,15.13c0,5.79,1.32,10.79,3.95,15.02s6.41,7.19,11.33,8.89l16.34,5.93c9.37,3.11,16.57,8.6,21.61,16.51s7.55,17.35,7.55,28.35c0,8.6-1.7,16.19-5.09,22.75-3.4,6.56-8.14,11.63-14.23,15.23-6.09,3.6-13.24,5.4-21.43,5.4v.02Z"/>
  </g>
</svg>